{"accessors":[{"bufferView":0,"byteOffset":0,"componentType":5126,"count":4,"max":[0.0,0.004,0.052000000000000005],"min":[0.0,0.0,0.0],"type":"VEC3"},{"bufferView":0,"byteOffset":48,"componentType":5126,"count":6,"max":[0.02,0.004,0.0],"min":[0.0,0.0,0.0],"type":"VEC3"},{"bufferView":0,"byteOffset":120,"componentType":5126,"count":6,"max":[0.02,0.004,0.052000000000000005],"min":[0.0,0.0,0.052000000000000005],"type":"VEC3"},{"bufferView":0,"byteOffset":192,"componentType":5126,"count":12,"max":[0.02,0.0,0.052000000000000005],"min":[0.0,0.0,0.0],"type":"VEC3"},{"bufferView":0,"byteOffset":336,"componentType":5126,"count":4,"max":[0.003,0.004,0.052000000000000005],"min":[0.0,0.004,0.0],"type":"VEC3"},{"bufferView":0,"byteOffset":384,"componentType":5126,"count":4,"max":[0.02,0.004,0.052000000000000005],"min":[0.02,0.0,0.0],"type":"VEC3"},{"bufferView":0,"byteOffset":432,"componentType":5126,"count":4,"max":[0.02,0.004,0.052000000000000005],"min":[0.017,0.004,0.0],"type":"VEC3"},{"bufferView":0,"byteOffset":480,"componentType":5126,"count":4,"max":[0.017,0.04691246940061061,0.019634662460599056],"min":[0.003,0.004,0.0],"type":"VEC3"},{"bufferView":0,"byteOffset":528,"componentType":5126,"count":4,"max":[0.017,0.04691246940061061,0.052000000000000005],"min":[0.003,0.004,0.03236533753940094],"type":"VEC3"},{"bufferView":0,"byteOffset":576,"componentType":5126,"count":6,"max":[0.005600000000000002,0.0,0.04939999999999999],"min":[0.005599999999999998,-0.006,0.040600000000000004],"type":"VEC3"},{"bufferView":0,"byteOffset":648,"componentType":5126,"count":4,"max":[0.014400000000000003,0.0,0.046900000000000004],"min":[0.005599999999999998,-0.002,0.04689999999999999],"type":"VEC3"},{"bufferView":0,"byteOffset":696,"componentType":5126,"count":6,"max":[0.014400000000000003,0.0,0.04939999999999999],"min":[0.0144,-0.006,0.040600000000000004],"type":"VEC3"},{"bufferView":0,"byteOffset":768,"componentType":5126,"count":4,"max":[0.0144,0.0,0.040600000000000004],"min":[0.005599999999999998,-0.006,0.040600000000000004],"type":"VEC3"},{"bufferView":0,"byteOffset":816,"componentType":5126,"count":6,"max":[0.0056,0.0,0.0114],"min":[0.0056,-0.006,0.0026000000000000003],"type":"VEC3"},{"bufferView":0,"byteOffset":888,"componentType":5126,"count":4,"max":[0.014400000000000001,0.0,0.0089],"min":[0.0056,-0.002,0.0089],"type":"VEC3"},{"bufferView":0,"byteOffset":936,"componentType":5126,"count":6,"max":[0.014400000000000001,0.0,0.0114],"min":[0.014400000000000001,-0.006,0.0026000000000000003],"type":"VEC3"},{"bufferView":0,"byteOffset":1008,"componentType":5126,"count":4,"max":[0.014400000000000001,0.0,0.0026000000000000003],"min":[0.0056,-0.006,0.0026000000000000003],"type":"VEC3"},{"bufferView":0,"byteOffset":1056,"componentType":5126,"count":40,"max":[0.003,0.05096233119325321,0.052000000000000005],"min":[0.003,0.004,0.0],"type":"VEC3"},{"bufferView":0,"byteOffset":1536,"componentType":5126,"count":40,"max":[0.017,0.05096233119325321,0.052000000000000005],"min":[0.017,0.004,0.0],"type":"VEC3"},{"bufferView":0,"byteOffset":2016,"componentType":5126,"count":24,"max":[0.017,0.05096233119325321,0.03236533753940094],"min":[0.003,0.04691246940061061,0.019634662460599056],"type":"VEC3"},{"bufferView":0,"byteOffset":2304,"componentType":5126,"count":4,"max":[0.014400000000000003,-0.006,0.04939999999999999],"min":[0.005599999999999998,-0.006,0.040600000000000004],"type":"VEC3"},{"bufferView":0,"byteOffset":2352,"componentType":5126,"count":4,"max":[0.014400000000000003,-0.002,0.04939999999999999],"min":[0.005600000000000002,-0.006,0.04939999999999999],"type":"VEC3"},{"bufferView":0,"byteOffset":2400,"componentType":5126,"count":4,"max":[0.014400000000000003,-0.002,0.04939999999999999],"min":[0.005600000000000002,-0.002,0.04689999999999999],"type":"VEC3"},{"bufferView":0,"byteOffset":2448,"componentType":5126,"count":4,"max":[0.014400000000000001,-0.006,0.0114],"min":[0.0056,-0.006,0.0026000000000000003],"type":"VEC3"},{"bufferView":0,"byteOffset":2496,"componentType":5126,"count":4,"max":[0.014400000000000001,-0.002,0.0114],"min":[0.0056,-0.006,0.0114],"type":"VEC3"},{"bufferView":0,"byteOffset":2544,"componentType":5126,"count":4,"max":[0.014400000000000001,-0.002,0.0114],"min":[0.0056,-0.002,0.0089],"type":"VEC3"},{"bufferView":0,"byteOffset":2592,"componentType":5126,"count":54,"max":[0.017,0.047226303840818676,0.02925],"min":[0.003,0.040773696159181326,0.02275],"type":"VEC3"},{"bufferView":1,"byteOffset":0,"componentType":5126,"count":4,"type":"VEC3"},{"bufferView":1,"byteOffset":48,"componentType":5126,"count":6,"type":"VEC3"},{"bufferView":1,"byteOffset":120,"componentType":5126,"count":6,"type":"VEC3"},{"bufferView":1,"byteOffset":192,"componentType":5126,"count":12,"type":"VEC3"},{"bufferView":1,"byteOffset":336,"componentType":5126,"count":4,"type":"VEC3"},{"bufferView":1,"byteOffset":384,"componentType":5126,"count":4,"type":"VEC3"},{"bufferView":1,"byteOffset":432,"componentType":5126,"count":4,"type":"VEC3"},{"bufferView":1,"byteOffset":480,"componentType":5126,"count":4,"type":"VEC3"},{"bufferView":1,"byteOffset":528,"componentType":5126,"count":4,"type":"VEC3"},{"bufferView":1,"byteOffset":576,"componentType":5126,"count":6,"type":"VEC3"},{"bufferView":1,"byteOffset":648,"componentType":5126,"count":4,"type":"VEC3"},{"bufferView":1,"byteOffset":696,"componentType":5126,"count":6,"type":"VEC3"},{"bufferView":1,"byteOffset":768,"componentType":5126,"count":4,"type":"VEC3"},{"bufferView":1,"byteOffset":816,"componentType":5126,"count":6,"type":"VEC3"},{"bufferView":1,"byteOffset":888,"componentType":5126,"count":4,"type":"VEC3"},{"bufferView":1,"byteOffset":936,"componentType":5126,"count":6,"type":"VEC3"},{"bufferView":1,"byteOffset":1008,"componentType":5126,"count":4,"type":"VEC3"},{"bufferView":1,"byteOffset":1056,"componentType":5126,"count":40,"type":"VEC3"},{"bufferView":1,"byteOffset":1536,"componentType":5126,"count":40,"type":"VEC3"},{"bufferView":1,"byteOffset":2016,"componentType":5126,"count":24,"type":"VEC3"},{"bufferView":1,"byteOffset":2304,"componentType":5126,"count":4,"type":"VEC3"},{"bufferView":1,"byteOffset":2352,"componentType":5126,"count":4,"type":"VEC3"},{"bufferView":1,"byteOffset":2400,"componentType":5126,"count":4,"type":"VEC3"},{"bufferView":1,"byteOffset":2448,"componentType":5126,"count":4,"type":"VEC3"},{"bufferView":1,"byteOffset":2496,"componentType":5126,"count":4,"type":"VEC3"},{"bufferView":1,"byteOffset":2544,"componentType":5126,"count":4,"type":"VEC3"},{"bufferView":1,"byteOffset":2592,"componentType":5126,"count":54,"type":"VEC3"},{"bufferView":2,"byteOffset":0,"componentType":5123,"count":6,"type":"SCALAR"},{"bufferView":2,"byteOffset":12,"componentType":5123,"count":12,"type":"SCALAR"},{"bufferView":2,"byteOffset":36,"componentType":5123,"count":12,"type":"SCALAR"},{"bufferView":2,"byteOffset":60,"componentType":5123,"count":42,"type":"SCALAR"},{"bufferView":2,"byteOffset":144,"componentType":5123,"count":6,"type":"SCALAR"},{"bufferView":2,"byteOffset":156,"componentType":5123,"count":6,"type":"SCALAR"},{"bufferView":2,"byteOffset":168,"componentType":5123,"count":6,"type":"SCALAR"},{"bufferView":2,"byteOffset":180,"componentType":5123,"count":6,"type":"SCALAR"},{"bufferView":2,"byteOffset":192,"componentType":5123,"count":6,"type":"SCALAR"},{"bufferView":2,"byteOffset":204,"componentType":5123,"count":12,"type":"SCALAR"},{"bufferView":2,"byteOffset":228,"componentType":5123,"count":6,"type":"SCALAR"},{"bufferView":2,"byteOffset":240,"componentType":5123,"count":12,"type":"SCALAR"},{"bufferView":2,"byteOffset":264,"componentType":5123,"count":6,"type":"SCALAR"},{"bufferView":2,"byteOffset":276,"componentType":5123,"count":12,"type":"SCALAR"},{"bufferView":2,"byteOffset":300,"componentType":5123,"count":6,"type":"SCALAR"},{"bufferView":2,"byteOffset":312,"componentType":5123,"count":12,"type":"SCALAR"},{"bufferView":2,"byteOffset":336,"componentType":5123,"count":6,"type":"SCALAR"},{"bufferView":2,"byteOffset":348,"componentType":5123,"count":120,"type":"SCALAR"},{"bufferView":2,"byteOffset":588,"componentType":5123,"count":120,"type":"SCALAR"},{"bufferView":2,"byteOffset":828,"componentType":5123,"count":66,"type":"SCALAR"},{"bufferView":2,"byteOffset":960,"componentType":5123,"count":6,"type":"SCALAR"},{"bufferView":2,"byteOffset":972,"componentType":5123,"count":6,"type":"SCALAR"},{"bufferView":2,"byteOffset":984,"componentType":5123,"count":6,"type":"SCALAR"},{"bufferView":2,"byteOffset":996,"componentType":5123,"count":6,"type":"SCALAR"},{"bufferView":2,"byteOffset":1008,"componentType":5123,"count":6,"type":"SCALAR"},{"bufferView":2,"byteOffset":1020,"componentType":5123,"count":6,"type":"SCALAR"},{"bufferView":2,"byteOffset":1032,"componentType":5123,"count":156,"type":"SCALAR"}],"asset":{"generator":"Open CASCADE Technology 7.9 [dev.opencascade.org]","version":"2.0"},"bufferViews":[{"buffer":0,"byteLength":3240,"byteOffset":0,"byteStride":12,"target":34962},{"buffer":0,"byteLength":3240,"byteOffset":3240,"byteStride":12,"target":34962},{"buffer":0,"byteLength":1344,"byteOffset":6480,"target":34963}],"buffers":[{"byteLength":7824,"uri":"SpoolHolder.bin"}],"materials":[{"name":"mat_0","pbrMetallicRoughness":{"baseColorFactor":[0.41788509488105774,0.4620770215988159,0.5088813304901123,1.0]},"doubleSided":true}],"meshes":[{"name":"SpoolHolder","primitives":[{"attributes":{"NORMAL":27,"POSITION":0},"indices":54,"material":0,"mode":4},{"attributes":{"NORMAL":28,"POSITION":1},"indices":55,"material":0,"mode":4},{"attributes":{"NORMAL":29,"POSITION":2},"indices":56,"material":0,"mode":4},{"attributes":{"NORMAL":30,"POSITION":3},"indices":57,"material":0,"mode":4},{"attributes":{"NORMAL":31,"POSITION":4},"indices":58,"material":0,"mode":4},{"attributes":{"NORMAL":32,"POSITION":5},"indices":59,"material":0,"mode":4},{"attributes":{"NORMAL":33,"POSITION":6},"indices":60,"material":0,"mode":4},{"attributes":{"NORMAL":34,"POSITION":7},"indices":61,"material":0,"mode":4},{"attributes":{"NORMAL":35,"POSITION":8},"indices":62,"material":0,"mode":4},{"attributes":{"NORMAL":36,"POSITION":9},"indices":63,"material":0,"mode":4},{"attributes":{"NORMAL":37,"POSITION":10},"indices":64,"material":0,"mode":4},{"attributes":{"NORMAL":38,"POSITION":11},"indices":65,"material":0,"mode":4},{"attributes":{"NORMAL":39,"POSITION":12},"indices":66,"material":0,"mode":4},{"attributes":{"NORMAL":40,"POSITION":13},"indices":67,"material":0,"mode":4},{"attributes":{"NORMAL":41,"POSITION":14},"indices":68,"material":0,"mode":4},{"attributes":{"NORMAL":42,"POSITION":15},"indices":69,"material":0,"mode":4},{"attributes":{"NORMAL":43,"POSITION":16},"indices":70,"material":0,"mode":4},{"attributes":{"NORMAL":44,"POSITION":17},"indices":71,"material":0,"mode":4},{"attributes":{"NORMAL":45,"POSITION":18},"indices":72,"material":0,"mode":4},{"attributes":{"NORMAL":46,"POSITION":19},"indices":73,"material":0,"mode":4},{"attributes":{"NORMAL":47,"POSITION":20},"indices":74,"material":0,"mode":4},{"attributes":{"NORMAL":48,"POSITION":21},"indices":75,"material":0,"mode":4},{"attributes":{"NORMAL":49,"POSITION":22},"indices":76,"material":0,"mode":4},{"attributes":{"NORMAL":50,"POSITION":23},"indices":77,"material":0,"mode":4},{"attributes":{"NORMAL":51,"POSITION":24},"indices":78,"material":0,"mode":4},{"attributes":{"NORMAL":52,"POSITION":25},"indices":79,"material":0,"mode":4},{"attributes":{"NORMAL":53,"POSITION":26},"indices":80,"material":0,"mode":4}]}],"nodes":[{"mesh":0,"name":"SpoolHolder"}],"scene":0,"scenes":[{"nodes":[0]}]}